{
	"asset":{
		"generator":"Khronos glTF Blender I/O v3.5.30",
		"version":"2.0"
	},
	"scene":0,
	"scenes":[
		{
			"name":"Scene",
			"nodes":[
				0,
				1,
				2,
				3,
				4,
				5,
				6
			]
		}
	],
	"nodes":[
		{
			"mesh":0,
			"name":"Nostrils"
		},
		{
			"mesh":1,
			"name":"Edge of Shark Mouth"
		},
		{
			"mesh":2,
			"name":"Inside Shark Mouth"
		},
		{
			"mesh":3,
			"name":"Teeth",
			"scale":[
				1.0228323936462402,
				1.0228323936462402,
				1.0228323936462402
			],
			"translation":[
				-3.1327388286590576,
				0.08641326427459717,
				-3.4373779296875
			]
		},
		{
			"mesh":4,
			"name":"Eye Right",
			"rotation":[
				0.7000365257263184,
				-0.09974350780248642,
				0.09974350035190582,
				0.7000366449356079
			],
			"scale":[
				-0.12266841530799866,
				-0.14371587336063385,
				-0.12053767591714859
			],
			"translation":[
				-0.8024918437004089,
				0.02137455716729164,
				-7.32948637008667
			]
		},
		{
			"mesh":5,
			"name":"Eye Left",
			"rotation":[
				0.7000365257263184,
				-0.09974350780248642,
				0.09974350035190582,
				0.7000366449356079
			],
			"scale":[
				0.12266841530799866,
				0.14371587336063385,
				0.12053767591714859
			],
			"translation":[
				0.8024566173553467,
				0.02137455716729164,
				-7.327520370483398
			]
		},
		{
			"mesh":6,
			"name":"Shark Body"
		}
	],
	"materials":[
		{
			"doubleSided":true,
			"name":"Material.003",
			"pbrMetallicRoughness":{
				"baseColorFactor":[
					0.00489562563598156,
					0.00489562563598156,
					0.00489562563598156,
					1
				],
				"metallicFactor":0,
				"roughnessFactor":0.5
			}
		},
		{
			"doubleSided":true,
			"name":"Material.004",
			"pbrMetallicRoughness":{
				"baseColorFactor":[
					0.5488516092300415,
					0.013907276093959808,
					0.013907276093959808,
					1
				],
				"metallicFactor":0,
				"roughnessFactor":0.5
			}
		},
		{
			"doubleSided":true,
			"name":"Material",
			"pbrMetallicRoughness":{
				"baseColorFactor":[
					0,
					0,
					0,
					1
				],
				"metallicFactor":0,
				"roughnessFactor":0.5
			}
		},
		{
			"doubleSided":true,
			"name":"Material.002",
			"pbrMetallicRoughness":{
				"baseColorFactor":[
					0.9550893902778625,
					0.9550893902778625,
					0.9550893902778625,
					1
				],
				"metallicFactor":0,
				"roughnessFactor":0.5
			}
		},
		{
			"doubleSided":true,
			"name":"Material.001",
			"pbrMetallicRoughness":{
				"baseColorFactor":[
					0.0010314404498785734,
					0.0010314404498785734,
					0.0010314404498785734,
					1
				],
				"metallicFactor":0,
				"roughnessFactor":0.5
			}
		},
		{
			"doubleSided":true,
			"name":"Material.005",
			"pbrMetallicRoughness":{
				"baseColorFactor":[
					0.800000011920929,
					0.800000011920929,
					0.800000011920929,
					1
				],
				"metallicFactor":0,
				"roughnessFactor":0.5
			}
		}
	],
	"meshes":[
		{
			"name":"Cube.003",
			"primitives":[
				{
					"attributes":{
						"POSITION":0,
						"NORMAL":1
					},
					"indices":2,
					"material":0
				}
			]
		},
		{
			"name":"Cube.002",
			"primitives":[
				{
					"attributes":{
						"POSITION":3,
						"NORMAL":4
					},
					"indices":5,
					"material":1
				}
			]
		},
		{
			"name":"Cube.001",
			"primitives":[
				{
					"attributes":{
						"POSITION":6,
						"NORMAL":7
					},
					"indices":8,
					"material":2
				}
			]
		},
		{
			"name":"Plane.001",
			"primitives":[
				{
					"attributes":{
						"POSITION":9,
						"NORMAL":10
					},
					"indices":11,
					"material":3
				}
			]
		},
		{
			"name":"Sphere.002",
			"primitives":[
				{
					"attributes":{
						"POSITION":12,
						"NORMAL":13
					},
					"indices":14,
					"material":4
				}
			]
		},
		{
			"name":"Sphere",
			"primitives":[
				{
					"attributes":{
						"POSITION":15,
						"NORMAL":16
					},
					"indices":14,
					"material":4
				}
			]
		},
		{
			"name":"Cube",
			"primitives":[
				{
					"attributes":{
						"POSITION":17,
						"TEXCOORD_0":18,
						"NORMAL":19
					},
					"indices":20,
					"material":5
				}
			]
		}
	],
	"accessors":[
		{
			"bufferView":0,
			"componentType":5126,
			"count":7,
			"max":[
				0.7852157354354858,
				-0.39884239435195923,
				-7.706723690032959
			],
			"min":[
				0.54949551820755,
				-0.5467584133148193,
				-7.951680660247803
			],
			"type":"VEC3"
		},
		{
			"bufferView":1,
			"componentType":5126,
			"count":7,
			"type":"VEC3"
		},
		{
			"bufferView":2,
			"componentType":5123,
			"count":18,
			"type":"SCALAR"
		},
		{
			"bufferView":3,
			"componentType":5126,
			"count":7,
			"max":[
				0.9693464040756226,
				-0.3796730637550354,
				-6.011433124542236
			],
			"min":[
				0.6396195292472839,
				-0.5528004169464111,
				-6.292522430419922
			],
			"type":"VEC3"
		},
		{
			"bufferView":4,
			"componentType":5126,
			"count":7,
			"type":"VEC3"
		},
		{
			"bufferView":5,
			"componentType":5123,
			"count":15,
			"type":"SCALAR"
		},
		{
			"bufferView":6,
			"componentType":5126,
			"count":39,
			"max":[
				0.6984797716140747,
				-0.34280925989151,
				-6.2857232093811035
			],
			"min":[
				0,
				-0.6526185870170593,
				-6.667442321777344
			],
			"type":"VEC3"
		},
		{
			"bufferView":7,
			"componentType":5126,
			"count":39,
			"type":"VEC3"
		},
		{
			"bufferView":8,
			"componentType":5123,
			"count":162,
			"type":"SCALAR"
		},
		{
			"bufferView":9,
			"componentType":5126,
			"count":360,
			"max":[
				3.7717065811157227,
				-0.38738274574279785,
				-2.6706578731536865
			],
			"min":[
				2.3473196029663086,
				-0.8050931692123413,
				-3.3272647857666016
			],
			"type":"VEC3"
		},
		{
			"bufferView":10,
			"componentType":5126,
			"count":360,
			"type":"VEC3"
		},
		{
			"bufferView":11,
			"componentType":5123,
			"count":720,
			"type":"SCALAR"
		},
		{
			"bufferView":12,
			"componentType":5126,
			"count":482,
			"max":[
				1.0000003576278687,
				1,
				0.9999998211860657
			],
			"min":[
				-1,
				-1,
				-1.000000238418579
			],
			"type":"VEC3"
		},
		{
			"bufferView":13,
			"componentType":5126,
			"count":482,
			"type":"VEC3"
		},
		{
			"bufferView":14,
			"componentType":5123,
			"count":2880,
			"type":"SCALAR"
		},
		{
			"bufferView":15,
			"componentType":5126,
			"count":482,
			"max":[
				1.0000003576278687,
				1,
				0.9999998211860657
			],
			"min":[
				-1,
				-1,
				-1.000000238418579
			],
			"type":"VEC3"
		},
		{
			"bufferView":16,
			"componentType":5126,
			"count":482,
			"type":"VEC3"
		},
		{
			"bufferView":17,
			"componentType":5126,
			"count":1546,
			"max":[
				3.4494221210479736,
				6.667250633239746,
				11.162171363830566
			],
			"min":[
				-0.019955873489379883,
				-1.6444061994552612,
				-8.569045066833496
			],
			"type":"VEC3"
		},
		{
			"bufferView":18,
			"componentType":5126,
			"count":1546,
			"type":"VEC2"
		},
		{
			"bufferView":19,
			"componentType":5126,
			"count":1546,
			"type":"VEC3"
		},
		{
			"bufferView":20,
			"componentType":5123,
			"count":8589,
			"type":"SCALAR"
		}
	],
	"bufferViews":[
		{
			"buffer":0,
			"byteLength":84,
			"byteOffset":0,
			"target":34962
		},
		{
			"buffer":0,
			"byteLength":84,
			"byteOffset":84,
			"target":34962
		},
		{
			"buffer":0,
			"byteLength":36,
			"byteOffset":168,
			"target":34963
		},
		{
			"buffer":0,
			"byteLength":84,
			"byteOffset":204,
			"target":34962
		},
		{
			"buffer":0,
			"byteLength":84,
			"byteOffset":288,
			"target":34962
		},
		{
			"buffer":0,
			"byteLength":30,
			"byteOffset":372,
			"target":34963
		},
		{
			"buffer":0,
			"byteLength":468,
			"byteOffset":404,
			"target":34962
		},
		{
			"buffer":0,
			"byteLength":468,
			"byteOffset":872,
			"target":34962
		},
		{
			"buffer":0,
			"byteLength":324,
			"byteOffset":1340,
			"target":34963
		},
		{
			"buffer":0,
			"byteLength":4320,
			"byteOffset":1664,
			"target":34962
		},
		{
			"buffer":0,
			"byteLength":4320,
			"byteOffset":5984,
			"target":34962
		},
		{
			"buffer":0,
			"byteLength":1440,
			"byteOffset":10304,
			"target":34963
		},
		{
			"buffer":0,
			"byteLength":5784,
			"byteOffset":11744,
			"target":34962
		},
		{
			"buffer":0,
			"byteLength":5784,
			"byteOffset":17528,
			"target":34962
		},
		{
			"buffer":0,
			"byteLength":5760,
			"byteOffset":23312,
			"target":34963
		},
		{
			"buffer":0,
			"byteLength":5784,
			"byteOffset":29072,
			"target":34962
		},
		{
			"buffer":0,
			"byteLength":5784,
			"byteOffset":34856,
			"target":34962
		},
		{
			"buffer":0,
			"byteLength":18552,
			"byteOffset":40640,
			"target":34962
		},
		{
			"buffer":0,
			"byteLength":12368,
			"byteOffset":59192,
			"target":34962
		},
		{
			"buffer":0,
			"byteLength":18552,
			"byteOffset":71560,
			"target":34962
		},
		{
			"buffer":0,
			"byteLength":17178,
			"byteOffset":90112,
			"target":34963
		}
	],
	"buffers":[
		{
			"byteLength":107292,
			"uri":"data:application/octet-stream;base64,"
		}
	]
}
